<svg xmlns="http://www.w3.org/2000/svg" width="46" height="46" viewBox="0 0 46 46">
    <g fill="#FFF" fill-rule="evenodd">
        <path d="M37.603 8.297C33.815 4.54 28.6 2.203 22.83 2.203A20.859 20.859 0 0 0 8.07 8.297c-3.776 3.76-6.121 8.954-6.121 14.699 0 5.744 2.345 10.938 6.12 14.71a20.848 20.848 0 0 0 14.76 6.082 20.9 20.9 0 0 0 14.774-6.082c3.775-3.772 6.108-8.966 6.108-14.71a20.67 20.67 0 0 0-6.108-14.699zM22.83.443a22.613 22.613 0 0 1 16.014 6.606c4.101 4.084 6.634 9.715 6.634 15.947 0 6.23-2.533 11.863-6.634 15.946a22.614 22.614 0 0 1-16.014 6.606 22.614 22.614 0 0 1-16.015-6.606C2.715 34.86.181 29.227.181 22.996c0-6.232 2.533-11.863 6.634-15.947A22.612 22.612 0 0 1 22.83.443z"/>
        <path d="M24.24 18.267v-1.849c0-.886.59-1.098 1.016-1.098h2.596v-3.947h-3.574c-3.976 0-4.866 2.923-4.866 4.82v2.074h-2.308v4.608h2.333v11.514h4.628V22.875h3.423l.15-1.811.277-2.797H24.24"/>
    </g>
</svg>
