<svg xmlns="http://www.w3.org/2000/svg" width="46" height="46" viewBox="0 0 46 46">
    <g fill="#FFF" fill-rule="evenodd">
        <path d="M37.41 7.855A20.806 20.806 0 0 0 22.65 1.76 20.807 20.807 0 0 0 7.887 7.855a20.632 20.632 0 0 0-6.12 14.697c0 5.745 2.333 10.94 6.12 14.698a20.805 20.805 0 0 0 14.761 6.094 20.804 20.804 0 0 0 14.76-6.094 20.63 20.63 0 0 0 6.12-14.698 20.63 20.63 0 0 0-6.12-14.697zM22.65 0a22.614 22.614 0 0 1 16.014 6.606c4.1 4.083 6.634 9.715 6.634 15.946 0 6.232-2.533 11.864-6.634 15.947a22.614 22.614 0 0 1-16.015 6.607 22.612 22.612 0 0 1-16.014-6.607C2.533 34.416 0 28.784 0 22.552c0-6.23 2.533-11.863 6.635-15.946A22.611 22.611 0 0 1 22.649 0z"/>
        <path d="M22.277 29.842a1.063 1.063 0 0 1-1.718.837l-3.486-2.731a2.09 2.09 0 0 1-.505.064h-3.493A2.075 2.075 0 0 1 11 25.937v-6.052c0-1.145.929-2.074 2.075-2.074h3.494c.203 0 .398.03.584.084l3.406-2.67a1.063 1.063 0 0 1 1.718.838v13.779zm3.49-4.366l-1.165-1.166a2.207 2.207 0 0 0-.086-2.727l1.156-1.156a3.837 3.837 0 0 1 .095 5.049zm1.51 1.51a5.964 5.964 0 0 0 1.522-3.983 5.964 5.964 0 0 0-1.617-4.086l1.156-1.157a7.597 7.597 0 0 1 2.097 5.243c0 1.98-.759 3.784-1.999 5.141l-1.159-1.158zm3.938 3.903l-1.156-1.157a9.86 9.86 0 0 0 2.648-6.729 9.86 9.86 0 0 0-2.746-6.832l1.156-1.156a11.49 11.49 0 0 1 3.226 7.988c0 3.049-1.19 5.822-3.128 7.886z"/>
    </g>
</svg>
