<svg xmlns="http://www.w3.org/2000/svg" width="46" height="46" viewBox="0 0 46 46">
    <g fill="#FFF" fill-rule="evenodd">
        <path d="M37.821 8.296a20.806 20.806 0 0 0-14.76-6.094A20.807 20.807 0 0 0 8.299 8.296a20.632 20.632 0 0 0-6.12 14.698c0 5.744 2.334 10.94 6.12 14.698a20.805 20.805 0 0 0 14.762 6.094 20.804 20.804 0 0 0 14.76-6.094 20.63 20.63 0 0 0 6.12-14.698 20.63 20.63 0 0 0-6.12-14.698zM23.061.44a22.614 22.614 0 0 1 16.014 6.606c4.101 4.084 6.634 9.716 6.634 15.947s-2.533 11.863-6.634 15.947a22.614 22.614 0 0 1-16.014 6.606A22.612 22.612 0 0 1 7.046 38.94C2.944 34.857.411 29.225.411 22.994S2.944 11.13 7.046 7.047A22.611 22.611 0 0 1 23.061.441z"/>
        <path d="M15.222 12.816a2.377 2.377 0 0 0-2.383 2.373 2.377 2.377 0 0 0 2.383 2.373 2.377 2.377 0 0 0 2.383-2.373 2.377 2.377 0 0 0-2.383-2.373zm17.946 10.952c-.313-2.572-1.492-4.17-4.978-4.17-2.045 0-3.424.749-4 1.835h-.064v-1.836h-3.8v13.574h3.976v-6.73c0-1.774.35-3.484 2.534-3.484 2.194 0 2.356 2.022 2.356 3.608v6.606h4.089v-7.455c0-.7-.038-1.348-.113-1.948zm-20.329-.562v9.965h4.766V19.597h-4.766v3.61z"/>
    </g>
</svg>
