<svg xmlns="http://www.w3.org/2000/svg" width="46" height="46" viewBox="0 0 46 46">
    <g fill="#FFF" fill-rule="evenodd">
        <path d="M37.734 8.297C33.947 4.54 28.73 2.203 22.961 2.203A20.88 20.88 0 0 0 8.2 8.297c-3.775 3.76-6.12 8.954-6.12 14.699 0 5.744 2.345 10.938 6.12 14.71a20.869 20.869 0 0 0 14.76 6.082 20.9 20.9 0 0 0 14.773-6.082c3.775-3.772 6.107-8.966 6.107-14.71a20.67 20.67 0 0 0-6.107-14.699zM22.961.443a22.59 22.59 0 0 1 16.015 6.606c4.1 4.084 6.634 9.715 6.634 15.947 0 6.23-2.533 11.863-6.634 15.946a22.592 22.592 0 0 1-16.015 6.606 22.636 22.636 0 0 1-16.015-6.606C2.846 34.86.312 29.227.312 22.996c0-6.232 2.533-11.863 6.634-15.947A22.635 22.635 0 0 1 22.961.443z"/>
        <path stroke="#FFF" stroke-width=".5" d="M29.962 22.675c0-4.021-3.273-7.293-7.324-7.293-4.038 0-7.323 3.272-7.323 7.293 0 4.033 3.285 7.293 7.323 7.293 4.051 0 7.324-3.26 7.324-7.293zm-.138-8.28a1.175 1.175 0 1 0 0 2.348c.652 0 1.18-.524 1.18-1.174 0-.649-.528-1.174-1.18-1.174zM16.657 12.71h11.976c2.22 0 4.026 1.798 4.026 4.009v11.925c0 2.21-1.806 4.008-4.026 4.008H16.657c-2.22 0-4.026-1.798-4.026-4.008V16.719c0-2.211 1.805-4.01 4.026-4.01zm11.976-1.337H16.657c-2.947 0-5.368 2.398-5.368 5.346v11.925c0 2.934 2.42 5.345 5.368 5.345h11.976c2.96 0 5.368-2.41 5.368-5.345V16.719c0-2.948-2.408-5.346-5.368-5.346zM16.844 22.675c0-3.185 2.597-5.782 5.794-5.782 3.211 0 5.807 2.597 5.807 5.782 0 3.196-2.596 5.782-5.807 5.782-3.197 0-5.794-2.586-5.794-5.782z"/>
    </g>
</svg>
