<svg xmlns="http://www.w3.org/2000/svg" width="142" height="48" viewBox="0 0 142 48">
    <g fill="#FFF" fill-rule="evenodd">
        <path d="M23.705.715l-.657 1.307L.53 46.849 0 47.904h1.183l44.904.033 1.183.001-.528-1.057-22.385-44.86-.652-1.306zM2.365 46.446L23.698 3.981l21.206 42.496-42.537-.03z"/>
        <path d="M31.877 25.163a11.607 11.607 0 0 0-8.232-3.41 11.607 11.607 0 0 0-8.233 3.41 11.606 11.606 0 0 0-3.41 8.233c0 3.215 1.304 6.125 3.41 8.232a11.607 11.607 0 0 0 8.233 3.41c3.215 0 6.125-1.304 8.232-3.41a11.607 11.607 0 0 0 3.41-8.232c0-3.215-1.303-6.127-3.41-8.233m-8.232-4.98c3.648 0 6.951 1.479 9.343 3.87a13.17 13.17 0 0 1 3.87 9.343c0 3.648-1.48 6.95-3.87 9.342a13.174 13.174 0 0 1-9.343 3.87 13.172 13.172 0 0 1-9.343-3.87 13.174 13.174 0 0 1-3.87-9.342c0-3.65 1.48-6.952 3.87-9.343a13.172 13.172 0 0 1 9.343-3.87"/>
        <path d="M13.726 27.029l9.846 4.452 9.922-4.513-9.963-4.594zM24.188 32.741l-.016 10.93 9.295-4.297.052-10.954zM22.848 32.72l.042 10.968-9.32-4.463v-10.81z"/>
        <g>
            <path d="M56.724 27.554l3.365 1.017c-.226.944-.582 1.732-1.068 2.365a4.633 4.633 0 0 1-1.81 1.433c-.72.322-1.638.483-2.75.483-1.352 0-2.455-.196-3.311-.589-.857-.392-1.596-1.082-2.217-2.07-.622-.99-.933-2.254-.933-3.797 0-2.055.547-3.635 1.64-4.74C50.734 20.552 52.281 20 54.282 20c1.565 0 2.796.316 3.692.95.896.632 1.561 1.605 1.997 2.916l-3.392.754c-.118-.378-.243-.655-.373-.83a2.21 2.21 0 0 0-.788-.679 2.266 2.266 0 0 0-1.043-.237c-.87 0-1.537.35-2 1.05-.35.52-.526 1.335-.526 2.447 0 1.377.209 2.322.627 2.832.418.511 1.006.767 1.764.767.734 0 1.29-.206 1.665-.619.376-.413.649-1.012.819-1.797M68.211 27.342c-.068-.667-.247-1.145-.538-1.433-.291-.288-.674-.432-1.15-.432-.547 0-.985.217-1.313.652-.21.272-.342.676-.399 1.213h3.4zm3.51 1.653h-6.918c.062.554.212.966.45 1.238.333.39.768.585 1.305.585.339 0 .661-.085.966-.255.187-.107.387-.296.602-.568l3.4.314c-.52.904-1.148 1.553-1.882 1.946-.735.392-1.79.589-3.163.589-1.192 0-2.13-.168-2.814-.505-.684-.336-1.25-.87-1.7-1.602-.45-.732-.674-1.592-.674-2.581 0-1.408.45-2.547 1.352-3.417.902-.87 2.147-1.306 3.735-1.306 1.288 0 2.306.195 3.052.585a3.95 3.95 0 0 1 1.704 1.696c.39.74.585 1.704.585 2.89v.39zM73.34 23.637h3.23v1.475c.31-.639.632-1.078.962-1.318.33-.24.74-.36 1.225-.36.509 0 1.066.158 1.67.474l-1.068 2.459c-.407-.17-.729-.255-.966-.255-.452 0-.803.187-1.051.56-.357.526-.535 1.509-.535 2.95v3.018H73.34v-9.003zM86.04 20.212v3.425h1.899v2.526h-1.9v3.19c0 .384.037.637.11.761.114.192.312.288.594.288.255 0 .61-.073 1.069-.22l.254 2.382c-.854.187-1.65.28-2.39.28-.86 0-1.493-.11-1.9-.33a2.013 2.013 0 0 1-.903-1.004c-.195-.449-.292-1.175-.292-2.18v-3.167h-1.272v-2.526h1.272v-1.653l3.459-1.772zM98.087 27.554l3.365 1.017c-.226.944-.582 1.732-1.068 2.365a4.633 4.633 0 0 1-1.81 1.433c-.72.322-1.638.483-2.751.483-1.35 0-2.454-.196-3.31-.589-.857-.392-1.596-1.082-2.217-2.07-.622-.99-.933-2.254-.933-3.797 0-2.055.547-3.635 1.64-4.74C92.097 20.552 93.644 20 95.645 20c1.565 0 2.796.316 3.692.95.896.632 1.561 1.605 1.997 2.916l-3.392.754c-.118-.378-.243-.655-.373-.83a2.21 2.21 0 0 0-.788-.679 2.267 2.267 0 0 0-1.043-.237c-.87 0-1.537.35-2 1.05-.35.52-.526 1.335-.526 2.447 0 1.377.209 2.322.627 2.832.418.511 1.006.767 1.764.767.734 0 1.29-.206 1.665-.619.376-.413.649-1.012.819-1.797M103.088 20.212h3.45v4.578c.47-.486.936-.834 1.4-1.043.463-.209 1.011-.313 1.644-.313.939 0 1.678.285 2.217.856.54.57.81 1.447.81 2.628v5.722h-3.467v-4.95c0-.566-.105-.966-.314-1.2-.21-.235-.503-.352-.882-.352-.418 0-.757.158-1.017.475-.26.316-.39.884-.39 1.704v4.323h-3.45V20.212zM120.807 28.368c-.475.17-.97.319-1.484.449-.7.186-1.144.37-1.33.551a.864.864 0 0 0-.289.636c0 .271.095.493.284.665.19.173.468.259.835.259.384 0 .742-.093 1.073-.28.33-.186.565-.414.703-.682.139-.269.208-.618.208-1.047v-.551zm-2.993-1.815l-3.297-.347c.124-.577.303-1.03.538-1.361.234-.33.572-.617 1.013-.86.316-.176.751-.311 1.306-.407a10.532 10.532 0 0 1 1.797-.145c1.034 0 1.865.058 2.492.174.628.116 1.15.358 1.569.725.293.255.525.615.695 1.081.17.466.254.911.254 1.335v3.976c0 .424.027.756.08.997.054.24.172.546.352.92h-3.238a3.277 3.277 0 0 1-.254-.53 3.904 3.904 0 0 1-.12-.573c-.451.436-.9.746-1.347.933-.61.248-1.32.373-2.128.373-1.074 0-1.89-.249-2.446-.746-.557-.498-.835-1.11-.835-1.84 0-.684.2-1.246.602-1.687.401-.44 1.142-.769 2.221-.983 1.294-.26 2.134-.443 2.518-.547.384-.105.791-.242 1.22-.411 0-.424-.087-.721-.262-.89-.175-.17-.483-.255-.924-.255-.565 0-.99.09-1.272.271-.22.142-.398.407-.534.797zM126.377 32.64h3.45v-9.003h-3.45v9.003zm0-10.08h3.45v-2.348h-3.45v2.348zM132.031 23.637h3.214v1.467c.48-.6.966-1.028 1.458-1.285.491-.257 1.09-.386 1.797-.386.955 0 1.703.285 2.242.852.54.569.81 1.446.81 2.633v5.722h-3.467v-4.95c0-.566-.105-.966-.314-1.2-.21-.235-.503-.352-.882-.352-.418 0-.757.158-1.017.475-.26.316-.39.884-.39 1.704v4.323h-3.45v-9.003z"/>
        </g>
    </g>
</svg>
