<svg xmlns="http://www.w3.org/2000/svg" width="46" height="46" viewBox="0 0 46 46">
    <g fill="#FFF" fill-rule="evenodd">
        <path d="M37.821 8.296a20.806 20.806 0 0 0-14.76-6.094A20.807 20.807 0 0 0 8.299 8.296a20.632 20.632 0 0 0-6.12 14.698c0 5.744 2.334 10.94 6.12 14.698a20.805 20.805 0 0 0 14.762 6.094 20.804 20.804 0 0 0 14.76-6.094 20.63 20.63 0 0 0 6.12-14.698 20.63 20.63 0 0 0-6.12-14.698zM23.061.44a22.614 22.614 0 0 1 16.014 6.606c4.101 4.084 6.634 9.716 6.634 15.947s-2.533 11.863-6.634 15.947a22.614 22.614 0 0 1-16.014 6.606A22.612 22.612 0 0 1 7.046 38.94C2.944 34.857.411 29.225.411 22.994S2.944 11.13 7.046 7.047A22.611 22.611 0 0 1 23.061.441z"/>
        <path d="M33.31 23.68a1.927 1.927 0 0 0-2.543-.974l-.926.417-2.375-5.307.928-.413c.97-.433 1.403-1.574.97-2.543a1.921 1.921 0 0 0-2.543-.97l-.925.414-.413-.925c-.433-.973-1.573-1.406-2.542-.973a1.927 1.927 0 0 0-.974 2.543l.417.928-5.307 2.373-.413-.93a1.924 1.924 0 1 0-3.512 1.574l.413.926-.925.412a1.928 1.928 0 0 0-.973 2.543 1.928 1.928 0 0 0 2.543.973l.928-.417 2.372 5.307-.928.413a1.925 1.925 0 0 0 1.573 3.515l.925-.415.413.927c.434.97 1.573 1.404 2.543.97.97-.433 1.406-1.57.97-2.542l-.414-.926 5.308-2.372.412.926c.434.969 1.574 1.405 2.543.969.97-.43 1.406-1.57.97-2.54l-.414-.928.926-.413c.972-.433 1.405-1.57.972-2.542zm-12.288 3.388l-2.371-5.307 5.303-2.372 2.376 5.304-5.308 2.375z"/>
    </g>
</svg>
