<svg xmlns="http://www.w3.org/2000/svg" width="46" height="46" viewBox="0 0 46 46">
    <g fill="#FFF" fill-rule="evenodd">
        <path d="M37.821 8.296a20.806 20.806 0 0 0-14.76-6.094A20.807 20.807 0 0 0 8.299 8.296a20.632 20.632 0 0 0-6.12 14.698c0 5.744 2.334 10.94 6.12 14.698a20.805 20.805 0 0 0 14.762 6.094 20.804 20.804 0 0 0 14.76-6.094 20.63 20.63 0 0 0 6.12-14.698 20.63 20.63 0 0 0-6.12-14.698zM23.061.44a22.614 22.614 0 0 1 16.014 6.606c4.101 4.084 6.634 9.716 6.634 15.947s-2.533 11.863-6.634 15.947a22.614 22.614 0 0 1-16.014 6.606A22.612 22.612 0 0 1 7.046 38.94C2.944 34.857.411 29.225.411 22.994S2.944 11.13 7.046 7.047A22.611 22.611 0 0 1 23.061.441z"/>
        <path d="M11.7 23.737l4.644 1.733 1.797 5.78c.115.37.568.507.868.261l2.588-2.11a.772.772 0 0 1 .941-.026l4.668 3.39a.547.547 0 0 0 .858-.331l3.42-16.45a.547.547 0 0 0-.733-.622l-19.056 7.351a.548.548 0 0 0 .005 1.024zm6.151.81l9.075-5.588c.163-.1.33.12.19.25l-7.489 6.962a1.554 1.554 0 0 0-.48.928l-.256 1.89c-.034.253-.388.278-.458.034l-.98-3.447a.913.913 0 0 1 .398-1.028z"/>
    </g>
</svg>
