<svg xmlns="http://www.w3.org/2000/svg" width="46" height="46" viewBox="0 0 46 46">
    <g fill="#FFF" fill-rule="evenodd">
        <path d="M37.623 7.933A20.92 20.92 0 0 0 22.78 1.791 20.92 20.92 0 0 0 7.933 7.933a20.912 20.912 0 0 0-6.155 14.858c0 5.789 2.347 11.048 6.155 14.845 3.797 3.796 9.043 6.155 14.846 6.155 5.802 0 11.048-2.36 14.844-6.155a20.903 20.903 0 0 0 6.155-14.845 20.91 20.91 0 0 0-6.155-14.858zM22.78 0c6.293 0 11.981 2.56 16.106 6.672a22.724 22.724 0 0 1 6.672 16.119c0 6.28-2.548 11.982-6.672 16.106-4.125 4.112-9.813 6.672-16.106 6.672-6.294 0-11.982-2.56-16.106-6.672A22.712 22.712 0 0 1 0 22.79 22.72 22.72 0 0 1 6.673 6.67C10.797 2.56 16.485 0 22.779 0z"/>
        <path d="M34.757 16.007c-.845.366-1.765.618-2.736.744.995-.592 1.752-1.5 2.106-2.61a9.717 9.717 0 0 1-3.04 1.147c-.859-.92-2.106-1.488-3.493-1.488-2.624 0-4.768 2.106-4.768 4.692 0 .378.063.731.139 1.072a13.544 13.544 0 0 1-9.838-4.907c-.404.707-.656 1.502-.656 2.36 0 1.639.857 3.077 2.118 3.91a4.623 4.623 0 0 1-2.156-.581v.063c0 .605.114 1.16.328 1.69A4.758 4.758 0 0 0 16.268 25c-.417.114-.82.176-1.262.176a4.25 4.25 0 0 1-.896-.1 4.812 4.812 0 0 0 4.453 3.279 9.65 9.65 0 0 1-5.915 2.005c-.392 0-.757-.025-1.148-.063a13.77 13.77 0 0 0 7.315 2.106c7.454 0 12.058-5.158 13.255-10.518.216-.959.316-1.905.316-2.838v-.606a9.866 9.866 0 0 0 2.371-2.434"/>
    </g>
</svg>
